<svg width="20" height="20" viewBox="0 0 20 20" fill="none" xmlns="http://www.w3.org/2000/svg">
<path d="M5.43754 17.5C5.09032 17.5 4.79518 17.3785 4.55212 17.1354C4.30907 16.8924 4.18754 16.5972 4.18754 16.25V4.375H3.33337V3.125H7.25004V2.5H12.75V3.125H16.6667V4.375H15.8125V16.25C15.8125 16.5833 15.6875 16.875 15.4375 17.125C15.1875 17.375 14.8959 17.5 14.5625 17.5H5.43754ZM14.5625 4.375H5.43754V16.25H14.5625V4.375ZM7.64587 14.4583H8.89587V6.14583H7.64587V14.4583ZM11.1042 14.4583H12.3542V6.14583H11.1042V14.4583ZM5.43754 4.375V16.25V4.375Z" fill="white"/>
</svg>
