<svg width="32" height="32" viewBox="0 0 32 32" fill="none" xmlns="http://www.w3.org/2000/svg">
<path d="M14.6667 26.6666C14.2889 26.6666 13.9723 26.5388 13.7167 26.2833C13.4611 26.0277 13.3334 25.711 13.3334 25.3333V17.3333L5.3667 7.16659C5.05559 6.78881 5.01115 6.38881 5.23337 5.96659C5.45559 5.54436 5.80004 5.33325 6.2667 5.33325H25.7334C26.2 5.33325 26.5445 5.54436 26.7667 5.96659C26.9889 6.38881 26.9445 6.78881 26.6334 7.16659L18.6667 17.3333V25.3333C18.6667 25.711 18.5389 26.0277 18.2834 26.2833C18.0278 26.5388 17.7111 26.6666 17.3334 26.6666H14.6667ZM16 17.4666L24 7.33325H8.00004L16 17.4666Z" fill="white"/>
</svg>
