<svg width="32" height="32" viewBox="0 0 32 32" fill="none" xmlns="http://www.w3.org/2000/svg">
<g clip-path="url(#clip0_8_677)">
<path d="M13.7333 9.33337C13.7333 8.71115 13.9556 8.17782 14.4 7.73337C14.8444 7.28893 15.3778 7.06671 16 7.06671C16.6222 7.06671 17.1556 7.28893 17.6 7.73337C18.0444 8.17782 18.2667 8.71115 18.2667 9.33337C18.2667 9.9556 18.0444 10.4889 17.6 10.9334C17.1556 11.3778 16.6222 11.6 16 11.6C15.3778 11.6 14.8444 11.3778 14.4 10.9334C13.9556 10.4889 13.7333 9.9556 13.7333 9.33337ZM8 9.33337C8 7.11115 8.77778 5.22226 10.3333 3.66671C11.8889 2.11115 13.7778 1.33337 16 1.33337C18.2222 1.33337 20.1111 2.11115 21.6667 3.66671C23.2222 5.22226 24 7.11115 24 9.33337C24 10.9334 23.6222 12.3334 22.8667 13.5334C22.1111 14.7334 20.9667 15.6778 19.4333 16.3667L19.4333 28.2334L15.6667 32L10.5667 26.4334L12.7 23.5L10.5667 20.5667L12.5667 18.0667V16.3667C11.2333 15.8111 10.1389 14.9389 9.28333 13.75C8.42778 12.5612 8 11.0889 8 9.33337ZM10 9.33337C10 10.6223 10.4278 11.8112 11.2833 12.9C12.1389 13.9889 13.2333 14.6889 14.5667 15L14.5667 18.8L13.0667 20.6L15.1667 23.5334L13.1 26.2667L15.7333 29.1L17.4333 27.4L17.4333 15C18.6778 14.7334 19.75 14.0667 20.65 13C21.55 11.9334 22 10.7112 22 9.33337C22 7.66671 21.4167 6.25004 20.25 5.08337C19.0833 3.91671 17.6667 3.33337 16 3.33337C14.3333 3.33337 12.9167 3.91671 11.75 5.08337C10.5833 6.25004 10 7.66671 10 9.33337Z" fill="#898888"/>
</g>
<defs>
<clipPath id="clip0_8_677">
<rect width="32" height="32" fill="white" transform="translate(32) rotate(90)"/>
</clipPath>
</defs>
</svg>
