<svg width="282" height="76" viewBox="0 0 282 76" fill="none" xmlns="http://www.w3.org/2000/svg">
<path d="M135.808 6.53996H141.64C144.928 6.53996 147.328 7.24796 148.84 8.66396C150.376 10.056 151.144 11.976 151.144 14.424C151.144 17.256 150.316 19.428 148.66 20.94C147.004 22.452 144.544 23.208 141.28 23.208H139.876V33H135.808V6.53996ZM141.388 19.644C143.5 19.644 144.976 19.176 145.816 18.24C146.656 17.304 147.076 16.176 147.076 14.856C147.076 13.44 146.668 12.288 145.852 11.4C145.036 10.512 143.668 10.068 141.748 10.068H139.876V19.644H141.388Z" fill="#FED9C6"/>
<path d="M161.99 33.36C160.286 33.36 158.774 32.976 157.454 32.208C156.134 31.44 155.114 30.396 154.394 29.076C153.674 27.756 153.314 26.292 153.314 24.684C153.314 23.1 153.662 21.648 154.358 20.328C155.078 19.008 156.098 17.964 157.418 17.196C158.738 16.428 160.262 16.044 161.99 16.044C163.718 16.044 165.23 16.428 166.526 17.196C167.846 17.964 168.854 19.008 169.55 20.328C170.27 21.648 170.63 23.1 170.63 24.684C170.63 26.292 170.27 27.756 169.55 29.076C168.83 30.396 167.81 31.44 166.49 32.208C165.194 32.976 163.694 33.36 161.99 33.36ZM162.098 30.192C163.49 30.192 164.582 29.676 165.374 28.644C166.19 27.612 166.598 26.316 166.598 24.756C166.598 23.196 166.166 21.888 165.302 20.832C164.438 19.752 163.298 19.212 161.882 19.212C160.514 19.212 159.41 19.74 158.57 20.796C157.754 21.852 157.346 23.172 157.346 24.756C157.346 26.292 157.79 27.588 158.678 28.644C159.566 29.676 160.706 30.192 162.098 30.192Z" fill="#FED9C6"/>
<path d="M180.11 33.36C178.958 33.36 177.758 33.216 176.51 32.928C175.286 32.616 174.41 32.256 173.882 31.848L175.178 28.788C176.618 29.796 178.262 30.3 180.11 30.3C181.958 30.3 182.882 29.76 182.882 28.68C182.882 28.2 182.69 27.828 182.306 27.564C181.922 27.3 181.238 26.988 180.254 26.628L178.886 26.124C177.446 25.548 176.306 24.864 175.466 24.072C174.626 23.256 174.206 22.188 174.206 20.868C174.206 19.356 174.794 18.18 175.97 17.34C177.17 16.476 178.766 16.044 180.758 16.044C181.742 16.044 182.702 16.152 183.638 16.368C184.598 16.584 185.33 16.86 185.834 17.196L184.43 20.292C184.118 19.98 183.614 19.716 182.918 19.5C182.246 19.26 181.49 19.14 180.65 19.14C178.946 19.14 178.094 19.656 178.094 20.688C178.094 21.264 178.322 21.708 178.778 22.02C179.234 22.308 179.978 22.632 181.01 22.992C181.106 23.016 181.478 23.148 182.126 23.388C183.662 23.988 184.802 24.672 185.546 25.44C186.29 26.208 186.662 27.192 186.662 28.392C186.662 30.024 186.038 31.26 184.79 32.1C183.566 32.94 182.006 33.36 180.11 33.36Z" fill="#FED9C6"/>
<path d="M191.779 19.644H188.863V16.476H191.779V9.74396L195.703 8.87996V16.476H199.519V19.644H195.703V33H191.779V19.644Z" fill="#FED9C6"/>
<path d="M142.612 53.652L140.956 49.908L140.2 53.652L137.752 66H133.756L139.228 39.54H139.66L146.932 53.832L149.092 58.62L151.252 53.832L158.38 39.54H158.776L164.464 66H160.504L157.84 53.652L157.048 49.908L155.608 53.652L149.2 66H148.984L142.612 53.652Z" fill="#FED9C6"/>
<path d="M174.707 66.36C173.219 66.36 171.839 66.012 170.567 65.316C169.319 64.596 168.311 63.588 167.543 62.292C166.799 60.972 166.427 59.436 166.427 57.684C166.427 55.956 166.751 54.444 167.399 53.148C168.071 51.852 169.019 50.844 170.243 50.124C171.467 49.404 172.907 49.044 174.563 49.044C175.523 49.044 176.423 49.212 177.263 49.548C178.103 49.884 178.811 50.304 179.387 50.808C179.963 51.288 180.347 51.768 180.539 52.248L180.611 49.476H184.319V66H180.647L180.575 63.084C180.167 63.948 179.423 64.716 178.343 65.388C177.263 66.036 176.051 66.36 174.707 66.36ZM175.355 63.12C176.723 63.12 177.875 62.652 178.811 61.716C179.747 60.756 180.215 59.508 180.215 57.972V57.72C180.215 56.688 179.999 55.764 179.567 54.948C179.135 54.132 178.547 53.496 177.803 53.04C177.059 52.584 176.243 52.356 175.355 52.356C173.819 52.356 172.631 52.86 171.791 53.868C170.951 54.852 170.531 56.136 170.531 57.72C170.531 59.328 170.939 60.636 171.755 61.644C172.595 62.628 173.795 63.12 175.355 63.12Z" fill="#FED9C6"/>
<path d="M189.188 49.476H193.004L193.04 52.5C193.496 51.492 194.216 50.664 195.2 50.016C196.184 49.368 197.336 49.044 198.656 49.044C200.36 49.044 201.668 49.404 202.58 50.124C203.492 50.82 204.104 51.804 204.416 53.076C204.728 54.348 204.884 56.004 204.884 58.044V66H200.996V58.152C200.996 56.064 200.792 54.564 200.384 53.652C199.976 52.716 199.136 52.248 197.864 52.248C197.144 52.248 196.412 52.476 195.668 52.932C194.924 53.364 194.3 54 193.796 54.84C193.316 55.68 193.076 56.664 193.076 57.792V66H189.188V49.476Z" fill="#FED9C6"/>
<path d="M216.843 66.36C215.355 66.36 213.975 66.012 212.703 65.316C211.455 64.596 210.447 63.588 209.679 62.292C208.935 60.972 208.563 59.436 208.563 57.684C208.563 55.956 208.887 54.444 209.535 53.148C210.207 51.852 211.155 50.844 212.379 50.124C213.603 49.404 215.043 49.044 216.699 49.044C217.659 49.044 218.559 49.212 219.399 49.548C220.239 49.884 220.947 50.304 221.523 50.808C222.099 51.288 222.483 51.768 222.675 52.248L222.747 49.476H226.455V66H222.783L222.711 63.084C222.303 63.948 221.559 64.716 220.479 65.388C219.399 66.036 218.187 66.36 216.843 66.36ZM217.491 63.12C218.859 63.12 220.011 62.652 220.947 61.716C221.883 60.756 222.351 59.508 222.351 57.972V57.72C222.351 56.688 222.135 55.764 221.703 54.948C221.271 54.132 220.683 53.496 219.939 53.04C219.195 52.584 218.379 52.356 217.491 52.356C215.955 52.356 214.767 52.86 213.927 53.868C213.087 54.852 212.667 56.136 212.667 57.72C212.667 59.328 213.075 60.636 213.891 61.644C214.731 62.628 215.931 63.12 217.491 63.12Z" fill="#FED9C6"/>
<path d="M239.351 74.64C238.127 74.64 236.915 74.472 235.715 74.136C234.539 73.8 233.699 73.488 233.195 73.2L234.059 69.6C235.643 70.632 237.371 71.148 239.243 71.148C240.683 71.148 241.895 70.8 242.879 70.104C243.863 69.408 244.367 68.052 244.391 66.036V63.084C243.887 64.02 243.071 64.8 241.943 65.424C240.815 66.048 239.567 66.36 238.199 66.36C236.759 66.36 235.439 66.012 234.239 65.316C233.039 64.596 232.091 63.576 231.395 62.256C230.699 60.936 230.351 59.4 230.351 57.648C230.351 55.968 230.675 54.48 231.323 53.184C231.995 51.864 232.943 50.844 234.167 50.124C235.391 49.404 236.819 49.044 238.451 49.044C239.411 49.044 240.311 49.212 241.151 49.548C241.991 49.884 242.699 50.304 243.275 50.808C243.875 51.288 244.271 51.768 244.463 52.248L244.535 49.476H248.207V65.892C248.207 68.7 247.487 70.86 246.047 72.372C244.607 73.884 242.375 74.64 239.351 74.64ZM239.279 63.084C240.647 63.084 241.799 62.616 242.735 61.68C243.671 60.72 244.139 59.472 244.139 57.936V57.684C244.139 56.652 243.923 55.728 243.491 54.912C243.059 54.096 242.471 53.46 241.727 53.004C240.983 52.548 240.167 52.32 239.279 52.32C237.743 52.32 236.555 52.824 235.715 53.832C234.875 54.816 234.455 56.1 234.455 57.684C234.455 59.292 234.863 60.6 235.679 61.608C236.519 62.592 237.719 63.084 239.279 63.084Z" fill="#FED9C6"/>
<path d="M260.642 66.36C258.674 66.36 257.03 65.976 255.71 65.208C254.39 64.416 253.418 63.372 252.794 62.076C252.17 60.756 251.858 59.316 251.858 57.756C251.858 56.004 252.218 54.468 252.938 53.148C253.682 51.828 254.702 50.82 255.998 50.124C257.294 49.404 258.758 49.044 260.39 49.044C262.934 49.044 264.818 49.752 266.042 51.168C267.29 52.56 267.914 54.528 267.914 57.072C267.914 57.72 267.878 58.392 267.806 59.088H255.926C256.19 60.552 256.706 61.608 257.474 62.256C258.266 62.904 259.358 63.228 260.75 63.228C261.902 63.228 262.85 63.132 263.594 62.94C264.338 62.748 265.022 62.484 265.646 62.148L266.834 64.92C266.234 65.304 265.418 65.64 264.386 65.928C263.354 66.216 262.106 66.36 260.642 66.36ZM264.134 56.388C264.158 54.9 263.834 53.856 263.162 53.256C262.49 52.632 261.53 52.32 260.282 52.32C257.762 52.32 256.31 53.676 255.926 56.388H264.134Z" fill="#FED9C6"/>
<path d="M271.522 49.476H275.41V52.716C275.794 51.612 276.418 50.724 277.282 50.052C278.146 49.38 279.13 49.044 280.234 49.044C281.002 49.044 281.53 49.116 281.818 49.26L281.278 53.184C281.062 53.04 280.594 52.968 279.874 52.968C278.746 52.968 277.714 53.328 276.778 54.048C275.866 54.768 275.41 55.92 275.41 57.504V66H271.522V49.476Z" fill="#FED9C6"/>
<path d="M8.54175 75.3333C6.37508 75.3333 4.47925 74.5333 2.85425 72.9333C1.22925 71.3333 0.416748 69.4666 0.416748 67.3333V8.66663C0.416748 6.53329 1.22925 4.66663 2.85425 3.06663C4.47925 1.46662 6.37508 0.666626 8.54175 0.666626H68.1251C70.2917 0.666626 72.1876 1.46662 73.8126 3.06663C75.4376 4.66663 76.2501 6.53329 76.2501 8.66663V67.3333C76.2501 69.4666 75.4376 71.3333 73.8126 72.9333C72.1876 74.5333 70.2917 75.3333 68.1251 75.3333H8.54175ZM8.54175 60.4C12.9654 57.5555 17.7275 55.4222 22.8282 54C27.9289 52.5777 33.0973 51.8666 38.3334 51.8666C43.5695 51.8666 48.7379 52.5777 53.8386 54C58.9393 55.4222 63.7015 57.5555 68.1251 60.4V8.66663H8.54175V60.4ZM38.3334 59.8666C33.5487 59.8666 28.9897 60.4666 24.6563 61.6666C20.323 62.8666 16.3056 64.7555 12.6042 67.3333H64.0626C60.1806 64.7555 56.0279 62.8666 51.6042 61.6666C47.1806 60.4666 42.757 59.8666 38.3334 59.8666ZM38.3334 44.8C34.1806 44.8 30.6372 43.3555 27.7032 40.4666C24.7692 37.5777 23.3022 34.0888 23.3022 30C23.3022 25.9111 24.7692 22.4222 27.7032 19.5333C30.6372 16.6444 34.1806 15.2 38.3334 15.2C42.4862 15.2 46.0296 16.6444 48.9636 19.5333C51.8976 22.4222 53.3647 25.9111 53.3647 30C53.3647 34.0888 51.8976 37.5777 48.9636 40.4666C46.0296 43.3555 42.4862 44.8 38.3334 44.8ZM38.3334 37.7333C40.5001 37.7333 42.3508 37 43.8855 35.5333C45.4202 34.0666 46.1876 32.2222 46.1876 30C46.1876 27.8666 45.4202 26.0444 43.8855 24.5333C42.3508 23.0222 40.5001 22.2666 38.3334 22.2666C36.0765 22.2666 34.2032 23.0222 32.7136 24.5333C31.224 26.0444 30.4792 27.8666 30.4792 30C30.4792 32.2222 31.224 34.0666 32.7136 35.5333C34.2032 37 36.0765 37.7333 38.3334 37.7333ZM89.7917 75.3333V0.666626H97.9167V75.3333H89.7917ZM111.458 75.3333V0.666626H119.583V75.3333H111.458Z" fill="#FED9C6"/>
</svg>
