<svg width="146" height="24" viewBox="0 0 146 24" fill="none" xmlns="http://www.w3.org/2000/svg">
<path d="M0.872 0.36H4.76C6.952 0.36 8.552 0.831999 9.56 1.776C10.584 2.704 11.096 3.984 11.096 5.616C11.096 7.504 10.544 8.952 9.44 9.96C8.336 10.968 6.696 11.472 4.52 11.472H3.584V18H0.872V0.36ZM4.592 9.096C6 9.096 6.984 8.784 7.544 8.16C8.104 7.536 8.384 6.784 8.384 5.904C8.384 4.96 8.112 4.192 7.568 3.6C7.024 3.008 6.112 2.712 4.832 2.712H3.584V9.096H4.592ZM18.5666 18.24C17.4306 18.24 16.4226 17.984 15.5426 17.472C14.6626 16.96 13.9826 16.264 13.5026 15.384C13.0226 14.504 12.7826 13.528 12.7826 12.456C12.7826 11.4 13.0146 10.432 13.4786 9.552C13.9586 8.672 14.6386 7.976 15.5186 7.464C16.3986 6.952 17.4146 6.696 18.5666 6.696C19.7186 6.696 20.7266 6.952 21.5906 7.464C22.4706 7.976 23.1426 8.672 23.6066 9.552C24.0866 10.432 24.3266 11.4 24.3266 12.456C24.3266 13.528 24.0866 14.504 23.6066 15.384C23.1266 16.264 22.4466 16.96 21.5666 17.472C20.7026 17.984 19.7026 18.24 18.5666 18.24ZM18.6386 16.128C19.5666 16.128 20.2946 15.784 20.8226 15.096C21.3666 14.408 21.6386 13.544 21.6386 12.504C21.6386 11.464 21.3506 10.592 20.7746 9.888C20.1986 9.168 19.4386 8.808 18.4946 8.808C17.5826 8.808 16.8466 9.16 16.2866 9.864C15.7426 10.568 15.4706 11.448 15.4706 12.504C15.4706 13.528 15.7666 14.392 16.3586 15.096C16.9506 15.784 17.7106 16.128 18.6386 16.128ZM30.8866 18.24C30.1186 18.24 29.3186 18.144 28.4866 17.952C27.6706 17.744 27.0866 17.504 26.7346 17.232L27.5986 15.192C28.5586 15.864 29.6546 16.2 30.8866 16.2C32.1186 16.2 32.7346 15.84 32.7346 15.12C32.7346 14.8 32.6066 14.552 32.3506 14.376C32.0946 14.2 31.6386 13.992 30.9826 13.752L30.0706 13.416C29.1106 13.032 28.3506 12.576 27.7906 12.048C27.2306 11.504 26.9506 10.792 26.9506 9.912C26.9506 8.904 27.3426 8.12 28.1266 7.56C28.9266 6.984 29.9906 6.696 31.3186 6.696C31.9746 6.696 32.6146 6.768 33.2386 6.912C33.8786 7.056 34.3666 7.24 34.7026 7.464L33.7666 9.528C33.5586 9.32 33.2226 9.144 32.7586 9C32.3106 8.84 31.8066 8.76 31.2466 8.76C30.1106 8.76 29.5426 9.104 29.5426 9.792C29.5426 10.176 29.6946 10.472 29.9986 10.68C30.3026 10.872 30.7986 11.088 31.4866 11.328C31.5506 11.344 31.7986 11.432 32.2306 11.592C33.2546 11.992 34.0146 12.448 34.5106 12.96C35.0066 13.472 35.2546 14.128 35.2546 14.928C35.2546 16.016 34.8386 16.84 34.0066 17.4C33.1906 17.96 32.1506 18.24 30.8866 18.24ZM38.9062 9.096H36.9622V6.984H38.9062V2.496L41.5222 1.92V6.984H44.0662V9.096H41.5222V18H38.9062V9.096ZM50.8768 9.768L49.7728 7.272L49.2688 9.768L47.6367 18H44.9728L48.6208 0.36H48.9088L53.7568 9.888L55.1968 13.08L56.6368 9.888L61.3888 0.36H61.6528L65.4448 18H62.8048L61.0288 9.768L60.5008 7.272L59.5408 9.768L55.2688 18H55.1248L50.8768 9.768ZM72.5135 18.24C71.5215 18.24 70.6015 18.008 69.7535 17.544C68.9215 17.064 68.2495 16.392 67.7375 15.528C67.2415 14.648 66.9935 13.624 66.9935 12.456C66.9935 11.304 67.2095 10.296 67.6415 9.432C68.0895 8.568 68.7215 7.896 69.5375 7.416C70.3535 6.936 71.3135 6.696 72.4175 6.696C73.0575 6.696 73.6575 6.808 74.2175 7.032C74.7775 7.256 75.2495 7.536 75.6335 7.872C76.0175 8.192 76.2735 8.512 76.4015 8.832L76.4495 6.984H78.9215V18H76.4735L76.4255 16.056C76.1535 16.632 75.6575 17.144 74.9375 17.592C74.2175 18.024 73.4095 18.24 72.5135 18.24ZM72.9455 16.08C73.8575 16.08 74.6255 15.768 75.2495 15.144C75.8735 14.504 76.1855 13.672 76.1855 12.648V12.48C76.1855 11.792 76.0415 11.176 75.7535 10.632C75.4655 10.088 75.0735 9.664 74.5775 9.36C74.0815 9.056 73.5375 8.904 72.9455 8.904C71.9215 8.904 71.1295 9.24 70.5695 9.912C70.0095 10.568 69.7295 11.424 69.7295 12.48C69.7295 13.552 70.0015 14.424 70.5455 15.096C71.1055 15.752 71.9055 16.08 72.9455 16.08ZM82.4071 6.984H84.9511L84.9751 9C85.2791 8.328 85.7591 7.776 86.4151 7.344C87.0711 6.912 87.8391 6.696 88.7191 6.696C89.8551 6.696 90.7271 6.936 91.3351 7.416C91.9431 7.88 92.3511 8.536 92.5591 9.384C92.7671 10.232 92.8711 11.336 92.8711 12.696V18H90.2791V12.768C90.2791 11.376 90.1431 10.376 89.8711 9.768C89.5991 9.144 89.0391 8.832 88.1911 8.832C87.7111 8.832 87.2231 8.984 86.7271 9.288C86.2311 9.576 85.8151 10 85.4791 10.56C85.1591 11.12 84.9991 11.776 84.9991 12.528V18H82.4071V6.984ZM101.084 18.24C100.092 18.24 99.1718 18.008 98.3238 17.544C97.4918 17.064 96.8198 16.392 96.3078 15.528C95.8118 14.648 95.5638 13.624 95.5638 12.456C95.5638 11.304 95.7798 10.296 96.2118 9.432C96.6598 8.568 97.2918 7.896 98.1078 7.416C98.9238 6.936 99.8838 6.696 100.988 6.696C101.628 6.696 102.228 6.808 102.788 7.032C103.348 7.256 103.82 7.536 104.204 7.872C104.588 8.192 104.844 8.512 104.972 8.832L105.02 6.984H107.492V18H105.044L104.996 16.056C104.724 16.632 104.228 17.144 103.508 17.592C102.788 18.024 101.98 18.24 101.084 18.24ZM101.516 16.08C102.428 16.08 103.196 15.768 103.82 15.144C104.444 14.504 104.756 13.672 104.756 12.648V12.48C104.756 11.792 104.612 11.176 104.324 10.632C104.036 10.088 103.644 9.664 103.148 9.36C102.652 9.056 102.108 8.904 101.516 8.904C100.492 8.904 99.6998 9.24 99.1398 9.912C98.5798 10.568 98.2998 11.424 98.2998 12.48C98.2998 13.552 98.5718 14.424 99.1158 15.096C99.6758 15.752 100.476 16.08 101.516 16.08ZM116.329 23.76C115.513 23.76 114.705 23.648 113.905 23.424C113.121 23.2 112.561 22.992 112.225 22.8L112.801 20.4C113.857 21.088 115.009 21.432 116.257 21.432C117.217 21.432 118.025 21.2 118.681 20.736C119.337 20.272 119.673 19.368 119.689 18.024V16.056C119.353 16.68 118.809 17.2 118.057 17.616C117.305 18.032 116.473 18.24 115.561 18.24C114.601 18.24 113.721 18.008 112.921 17.544C112.121 17.064 111.489 16.384 111.025 15.504C110.561 14.624 110.329 13.6 110.329 12.432C110.329 11.312 110.545 10.32 110.977 9.456C111.425 8.576 112.057 7.896 112.873 7.416C113.689 6.936 114.641 6.696 115.729 6.696C116.369 6.696 116.969 6.808 117.529 7.032C118.089 7.256 118.561 7.536 118.945 7.872C119.345 8.192 119.609 8.512 119.737 8.832L119.785 6.984H122.233V17.928C122.233 19.8 121.753 21.24 120.793 22.248C119.833 23.256 118.345 23.76 116.329 23.76ZM116.281 16.056C117.193 16.056 117.961 15.744 118.585 15.12C119.209 14.48 119.521 13.648 119.521 12.624V12.456C119.521 11.768 119.377 11.152 119.089 10.608C118.801 10.064 118.409 9.64 117.913 9.336C117.417 9.032 116.873 8.88 116.281 8.88C115.257 8.88 114.465 9.216 113.905 9.888C113.345 10.544 113.065 11.4 113.065 12.456C113.065 13.528 113.337 14.4 113.881 15.072C114.441 15.728 115.241 16.056 116.281 16.056ZM130.764 18.24C129.452 18.24 128.356 17.984 127.476 17.472C126.596 16.944 125.948 16.248 125.532 15.384C125.116 14.504 124.908 13.544 124.908 12.504C124.908 11.336 125.148 10.312 125.628 9.432C126.124 8.552 126.804 7.88 127.668 7.416C128.532 6.936 129.508 6.696 130.596 6.696C132.292 6.696 133.548 7.168 134.364 8.112C135.196 9.04 135.612 10.352 135.612 12.048C135.612 12.48 135.588 12.928 135.54 13.392H127.62C127.796 14.368 128.14 15.072 128.652 15.504C129.18 15.936 129.908 16.152 130.836 16.152C131.604 16.152 132.236 16.088 132.732 15.96C133.228 15.832 133.684 15.656 134.1 15.432L134.892 17.28C134.492 17.536 133.948 17.76 133.26 17.952C132.572 18.144 131.74 18.24 130.764 18.24ZM133.092 11.592C133.108 10.6 132.892 9.904 132.444 9.504C131.996 9.088 131.356 8.88 130.524 8.88C128.844 8.88 127.876 9.784 127.62 11.592H133.092ZM138.257 6.984H140.849V9.144C141.105 8.408 141.521 7.816 142.097 7.368C142.673 6.92 143.329 6.696 144.065 6.696C144.577 6.696 144.929 6.744 145.121 6.84L144.761 9.456C144.617 9.36 144.305 9.312 143.825 9.312C143.073 9.312 142.385 9.552 141.761 10.032C141.153 10.512 140.849 11.28 140.849 12.336V18H138.257V6.984Z" fill="white"/>
</svg>
