<svg width="37" height="37" viewBox="0 0 37 37" fill="none" xmlns="http://www.w3.org/2000/svg">
<path d="M30.1275 32.2037L20.2187 22.1645C19.4651 22.8261 18.586 23.3414 17.5813 23.7104C16.5766 24.0794 15.5091 24.2639 14.3789 24.2639C11.6662 24.2639 9.36795 23.3096 7.48415 21.401C5.60035 19.4924 4.65845 17.1894 4.65845 14.4919C4.65845 11.7944 5.60035 9.49135 7.48415 7.58275C9.36795 5.67415 11.6536 4.71985 14.3412 4.71985C17.0036 4.71985 19.2705 5.67415 21.1417 7.58275C23.013 9.49135 23.9486 11.7944 23.9486 14.4919C23.9486 15.5862 23.7728 16.6423 23.4211 17.6602C23.0695 18.6781 22.542 19.6324 21.8387 20.5231L31.7852 30.5242L30.1275 32.2037ZM14.3412 21.9736C16.3757 21.9736 18.1088 21.242 19.5405 19.7787C20.9722 18.3155 21.688 16.5532 21.688 14.4919C21.688 12.4306 20.9722 10.6683 19.5405 9.20506C18.1088 7.7418 16.3757 7.01017 14.3412 7.01017C12.2816 7.01017 10.5296 7.7418 9.08538 9.20506C7.64113 10.6683 6.91901 12.4306 6.91901 14.4919C6.91901 16.5532 7.64113 18.3155 9.08538 19.7787C10.5296 21.242 12.2816 21.9736 14.3412 21.9736V21.9736Z" fill="#898888"/>
</svg>
